<?xml version="1.0" standalone="no"?>
<!DOCTYPE svg PUBLIC "-//W3C//DTD SVG 20010904//EN"
 "http://www.w3.org/TR/2001/REC-SVG-20010904/DTD/svg10.dtd">
<svg version="1.0" xmlns="http://www.w3.org/2000/svg"
 width="600.000000pt" height="600.000000pt" viewBox="0 0 600.000000 600.000000"
 preserveAspectRatio="xMidYMid meet">

<g transform="translate(0.000000,600.000000) scale(0.100000,-0.100000)"
fill="#000000" stroke="none">
<path d="M4464 5158 c-17 -18 -83 -100 -148 -181 -65 -81 -127 -152 -137 -157
-11 -6 -702 -10 -1866 -10 l-1848 0 3 -1070 4 -1070 -236 0 -236 0 0 -471 0
-471 68 -72 c37 -40 125 -128 196 -197 l129 -124 760 -5 760 -5 -55 -80 c-136
-200 -194 -284 -245 -357 l-55 -78 689 2 688 3 80 116 c44 65 125 183 180 263
l100 146 1215 0 1215 0 105 116 c58 63 120 134 138 156 l32 41 0 493 0 494
-235 0 -235 0 0 340 0 340 -148 0 -148 0 -35 55 c-18 31 -53 86 -77 123 -71
110 -71 99 5 222 38 60 97 157 133 216 36 59 131 213 212 343 80 130 162 261
181 291 18 30 75 125 126 210 51 85 121 201 157 258 35 56 64 114 64 127 l0
25 -753 0 -753 0 -30 -32z m458 -270 c-34 -58 -114 -208 -110 -208 2 0 46 50
98 110 51 61 95 109 96 107 2 -2 -22 -52 -52 -113 l-56 -109 38 45 c22 25 54
61 71 80 32 34 32 35 33 10 0 -14 -18 -58 -41 -99 -22 -40 -38 -75 -36 -77 2
-2 19 17 38 42 l34 46 3 -207 2 -206 -47 -67 c-46 -64 -82 -119 -329 -501
-127 -196 -122 -174 -53 -266 26 -35 201 -297 254 -381 89 -140 83 -134 131
-134 l44 0 0 -110 0 -110 -110 0 -110 0 0 30 0 30 -182 2 -181 3 -90 168 c-50
92 -93 167 -97 167 -13 0 -124 -144 -230 -300 -61 -89 -121 -175 -134 -191
-13 -16 -26 -34 -28 -40 -2 -7 -28 -15 -58 -20 -30 -4 -95 -15 -145 -24 -98
-18 -213 -23 -233 -11 -6 4 -12 18 -12 30 0 18 -7 25 -32 30 -17 3 -33 4 -36
1 -3 -3 0 -5 6 -5 16 0 15 -33 0 -48 -9 -9 -7 -12 10 -12 12 0 22 -6 22 -14 0
-10 16 -17 45 -22 33 -5 45 -11 45 -24 0 -18 -30 -50 -52 -54 -38 -7 -57 -19
-60 -39 -2 -13 -11 -23 -23 -25 -11 -2 -29 -7 -40 -12 -29 -13 -143 -40 -169
-40 -12 0 -26 -4 -31 -9 -6 -5 -26 -14 -46 -20 -27 -9 -38 -19 -41 -36 -3 -14
-3 -27 0 -30 6 -6 140 1 318 17 131 11 131 11 153 43 18 27 20 36 10 64 -15
42 -3 102 21 108 15 4 17 11 13 38 -5 30 -2 35 18 39 84 19 498 50 525 39 8
-3 14 -13 14 -23 0 -18 8 -18 126 -13 102 5 128 3 135 -8 15 -23 11 -29 -28
-46 -21 -8 -42 -21 -46 -29 -4 -8 -16 -14 -25 -14 -10 0 -26 -6 -37 -14 -11
-7 -39 -16 -62 -19 -23 -3 -68 -21 -101 -41 -36 -22 -95 -45 -156 -60 -93 -24
-145 -45 -81 -33 76 14 146 17 186 8 24 -5 80 -12 124 -15 l81 -5 98 149 c54
82 104 151 112 154 8 3 14 17 14 31 0 14 4 33 9 43 5 9 13 30 17 46 5 16 16
34 26 39 25 16 98 -10 134 -48 l31 -33 27 35 c35 43 74 43 94 0 12 -25 11 -38
-12 -113 -31 -97 -87 -211 -136 -275 -63 -81 -103 -119 -127 -119 -25 0 -26
-2 -23 -72 1 -30 -5 -56 -16 -73 l-18 -27 135 6 c74 3 199 8 279 11 80 3 179
10 221 16 86 12 119 7 119 -21 0 -18 11 -19 249 -19 202 0 257 -3 287 -16 20
-8 47 -15 61 -15 32 0 63 -17 63 -35 0 -23 -50 -55 -86 -55 -18 0 -36 -4 -39
-10 -3 -5 -27 -10 -53 -10 -26 0 -85 -7 -132 -16 -47 -8 -105 -19 -130 -23
-25 -4 -59 -15 -76 -24 -17 -9 -62 -19 -100 -22 -370 -33 -542 -46 -644 -47
-106 0 -255 -31 -295 -61 -22 -16 -48 -23 -100 -25 -60 -3 -74 -1 -97 18 -23
18 -28 29 -28 68 -1 26 -8 65 -16 87 -21 54 -24 122 -8 169 8 22 13 40 11 42
-1 2 -39 -21 -82 -51 -44 -30 -85 -55 -92 -55 -7 0 -13 -7 -13 -14 0 -25 -44
-65 -101 -90 -60 -28 -160 -56 -197 -56 -14 0 -42 -5 -63 -12 -33 -9 -45 -8
-78 7 -51 23 -96 69 -87 90 3 9 2 46 -4 83 -7 54 -6 69 6 83 8 9 18 29 23 45
8 27 6 29 -23 31 -17 0 -53 -5 -81 -12 -27 -8 -114 -17 -193 -21 -128 -6 -144
-9 -157 -27 -8 -12 -13 -22 -12 -24 2 -1 75 1 163 6 170 9 214 3 214 -30 0
-12 -7 -19 -18 -19 -10 0 -28 -7 -40 -16 -12 -8 -34 -18 -49 -20 -15 -3 -52
-21 -83 -40 -31 -19 -72 -39 -91 -44 -19 -5 -38 -19 -44 -31 -9 -21 -58 -42
-125 -54 -14 -3 -45 -10 -70 -16 -53 -14 -157 -14 -173 0 -7 5 -23 11 -37 13
-23 3 -25 7 -24 58 2 79 85 260 174 378 38 49 38 51 19 68 -10 9 -18 22 -17
28 1 6 -3 27 -10 46 -8 24 -9 46 -3 68 6 18 6 32 1 32 -29 0 -65 -30 -85 -70
-13 -26 -51 -91 -86 -146 -34 -54 -79 -133 -101 -174 -22 -41 -47 -84 -57 -95
-10 -11 -28 -41 -39 -67 -27 -61 -95 -161 -128 -187 -15 -12 -36 -21 -47 -21
-17 0 -19 5 -14 43 7 42 6 42 -10 17 -50 -74 -168 -160 -221 -160 -29 0 -28
22 4 90 14 30 39 91 55 135 17 44 46 113 65 153 18 40 34 76 34 80 0 4 15 31
34 59 18 28 40 64 48 80 8 15 29 54 47 87 18 32 30 61 27 64 -3 3 -32 -5 -63
-18 -67 -27 -177 -38 -198 -20 -8 7 -17 27 -21 45 -4 25 -10 32 -24 28 -10 -3
-21 0 -24 5 -4 7 -17 7 -39 0 -38 -12 -94 -18 -202 -23 -44 -2 -114 -9 -155
-16 -64 -11 -70 -14 -45 -20 17 -4 87 -7 157 -8 70 0 129 -5 132 -10 3 -4 35
-11 71 -13 36 -3 71 -11 78 -17 32 -26 69 -114 71 -166 1 -62 -16 -88 -72
-106 -50 -16 -72 -45 -61 -81 6 -23 3 -31 -18 -48 -14 -11 -33 -20 -42 -20
-10 0 -21 -4 -26 -9 -12 -11 -275 -68 -325 -70 -75 -3 -258 -21 -320 -32 -36
-6 -137 -12 -225 -13 -88 -2 -207 -6 -265 -11 -101 -7 -106 -6 -140 17 -72 49
-43 84 117 139 65 22 138 53 163 68 25 16 65 32 89 35 24 4 56 13 72 21 16 9
41 17 56 20 98 16 188 36 195 43 5 5 -48 12 -124 16 -231 13 -262 18 -300 51
-26 22 -42 85 -25 101 4 4 7 22 7 40 0 29 6 36 39 53 21 11 48 36 59 55 13 22
32 38 49 42 15 4 35 12 43 19 15 12 81 32 134 40 16 2 36 11 45 19 17 16 157
59 230 71 24 4 66 17 95 30 28 12 123 41 211 65 106 29 165 49 174 62 19 25
68 24 76 -2 3 -11 12 -20 20 -20 7 0 16 -16 19 -35 4 -21 17 -41 30 -50 15
-10 26 -30 30 -55 7 -45 11 -47 40 -22 35 31 125 53 256 63 112 9 128 13 151
35 16 15 46 28 81 34 49 9 71 7 162 -14 101 -25 109 -25 242 -14 102 8 142 8
156 -1 10 -6 41 -11 70 -10 68 1 202 22 193 31 -4 3 4 23 18 45 114 181 106
163 97 220 -5 29 -12 57 -15 63 -3 6 -52 10 -111 10 l-104 0 0 175 0 175 66 0
c49 0 65 3 61 13 -2 6 -26 72 -53 145 -42 114 -51 130 -61 115 -11 -14 -13 34
-13 255 0 180 3 272 10 272 6 0 13 -7 16 -15 5 -12 26 -15 98 -15 83 0 95 -2
113 -22 11 -13 24 -34 28 -48 7 -23 245 -670 263 -713 6 -14 30 15 111 136 95
143 102 157 90 178 -11 22 -138 204 -316 452 l-76 107 -94 0 -93 0 0 105 0
105 180 0 180 0 0 -40 0 -40 114 0 c106 0 114 1 119 20 5 20 12 20 159 18
l153 -3 3 -52 3 -53 -91 0 -91 0 27 -47 c15 -27 47 -81 72 -122 l45 -74 36 59
c134 219 323 486 445 629 121 142 210 235 223 235 3 0 -4 -15 -15 -32z m-3812
-513 l0 -75 85 0 85 0 0 -750 0 -750 -150 0 -150 0 0 305 0 305 -59 0 -58 0
-6 73 c-2 39 -3 75 0 80 2 4 31 7 64 7 l59 0 2 195 c1 107 2 223 3 258 l0 62
-59 -3 c-41 -3 -61 0 -67 10 -15 22 -11 345 4 351 6 3 65 6 130 6 l117 1 0
-75z m170 10 c0 -19 -4 -35 -10 -35 -5 0 -10 16 -10 35 0 19 5 35 10 35 6 0
10 -16 10 -35z m1390 -805 l0 -790 -207 2 -208 3 -5 370 c-5 401 -4 394 -50
195 -11 -47 -29 -119 -41 -160 -12 -41 -31 -111 -42 -155 -11 -44 -30 -116
-42 -160 l-23 -80 -190 -3 -190 -2 -23 77 -24 78 -3 673 -3 673 27 -3 c26 -3
28 -8 67 -173 22 -93 43 -179 48 -190 4 -11 26 -101 48 -199 22 -98 45 -184
50 -189 8 -8 11 -6 11 7 0 15 97 446 116 514 6 20 3 22 -35 22 l-41 0 0 65 0
64 57 3 58 3 9 43 9 42 253 0 254 0 0 30 0 30 60 0 60 0 0 -790z m2347 377 c3
-3 -16 -34 -41 -69 -25 -35 -86 -121 -135 -192 l-90 -129 32 -38 c18 -20 58
-80 90 -133 62 -102 63 -113 10 -130 -16 -5 -26 0 -44 26 -13 18 -48 65 -79
103 -30 39 -69 93 -86 121 -30 49 -31 52 -15 80 9 17 41 64 72 105 31 42 87
120 124 174 l68 97 44 -5 c24 -2 46 -7 50 -10z m-1298 -217 c57 -119 90 -197
87 -208 -4 -10 -19 -31 -35 -46 l-28 -27 -22 68 c-12 37 -47 125 -76 196 -30
70 -53 133 -51 140 3 6 7 24 10 40 4 15 10 27 14 27 4 0 49 -86 101 -190z
m-2805 -626 c14 -5 16 -32 16 -191 l0 -184 -42 3 -43 3 -3 175 c-1 96 0 180 2
187 6 14 43 17 70 7z m2393 -1234 l26 0 -7 -71 c-7 -79 -34 -152 -80 -218
l-31 -43 -3 168 c-3 179 0 190 45 173 14 -5 36 -9 50 -9z m2154 -150 c22 -12
25 -43 7 -57 -7 -6 -118 -13 -248 -16 -129 -3 -267 -11 -306 -18 -64 -11 -75
-11 -98 4 -32 22 -33 45 -2 57 48 18 273 33 426 27 85 -2 164 -1 175 3 27 11
24 11 46 0z m-2828 -534 c-21 -23 -50 -57 -65 -76 -33 -42 -29 -26 26 94 20
43 35 81 33 83 -3 2 -27 -24 -53 -57 -27 -34 -68 -83 -92 -108 -47 -52 -47
-40 3 58 15 29 25 54 23 55 -2 2 -27 -24 -56 -58 -28 -34 -84 -96 -122 -137
l-71 -75 147 235 c80 129 172 273 203 319 l56 85 3 -188 2 -188 -37 -42z m37
-33 c0 -18 -15 -44 -41 -73 l-40 -45 36 73 c19 39 37 72 40 72 3 0 5 -12 5
-27z"/>
<path d="M3248 2543 c6 -2 18 -2 25 0 6 3 1 5 -13 5 -14 0 -19 -2 -12 -5z"/>
<path d="M4135 2160 c-8 -13 -82 -49 -115 -55 -13 -2 -28 -9 -34 -15 -5 -5
-21 -10 -35 -10 -15 0 -51 -7 -81 -15 -30 -8 -95 -19 -145 -25 -115 -13 -145
-19 -145 -31 0 -20 129 -9 197 17 86 32 256 49 290 27 22 -13 24 -11 53 48 17
34 29 63 27 66 -3 2 -8 -1 -12 -7z"/>
</g>
</svg>
